<?xml version="1.0" standalone="no"?>
<!DOCTYPE svg PUBLIC "-//W3C//DTD SVG 20010904//EN"
 "http://www.w3.org/TR/2001/REC-SVG-20010904/DTD/svg10.dtd">
<svg version="1.0" xmlns="http://www.w3.org/2000/svg"
 width="1292.000000pt" height="1186.000000pt" viewBox="0 0 1292.000000 1186.000000"
 preserveAspectRatio="xMidYMid meet">

<g transform="translate(0.000000,1186.000000) scale(0.100000,-0.100000)"
fill="#000000" stroke="none">
<path d="M2314 11822 c-196 -104 -497 -369 -594 -524 -28 -44 -43 -58 -73 -68
-232 -71 -405 -183 -661 -429 -218 -210 -328 -291 -620 -457 -153 -87 -195
-127 -247 -239 -87 -187 -141 -547 -106 -710 21 -100 71 -228 193 -496 111
-245 151 -327 192 -398 22 -38 27 -42 37 -27 8 10 19 14 30 9 13 -4 16 -3 11
5 -4 7 -2 12 3 12 6 0 11 -4 11 -9 0 -13 -27 -33 -32 -24 -3 4 -3 2 -1 -4 1
-7 5 -19 6 -25 2 -7 2 -10 0 -5 -3 4 -8 7 -13 7 -25 0 129 -241 251 -393 44
-54 79 -104 79 -111 0 -19 -241 -733 -315 -931 -34 -93 -66 -189 -70 -212 -15
-94 39 -108 174 -43 142 69 227 171 351 425 79 163 142 318 209 520 l49 145 6
-57 c3 -32 11 -147 17 -255 l11 -197 -58 -92 c-33 -50 -102 -141 -154 -201
-300 -347 -303 -350 -355 -561 -68 -274 -81 -413 -52 -541 10 -43 24 -176 32
-295 15 -225 21 -277 55 -501 28 -184 35 -347 20 -445 -25 -171 -29 -228 -20
-299 24 -187 118 -308 280 -362 78 -25 182 -24 244 4 l48 22 97 -83 c229 -198
418 -327 508 -347 84 -19 214 36 359 152 l87 70 -7 -104 c-7 -107 -31 -279
-66 -473 -20 -113 -41 -458 -41 -680 0 -69 11 -213 27 -340 18 -151 27 -272
28 -385 1 -155 -1 -172 -31 -285 -76 -287 -108 -541 -100 -808 4 -162 8 -194
35 -293 31 -112 107 -321 157 -427 l26 -57 70 0 c38 0 69 2 69 4 0 2 -20 54
-45 115 -63 158 -121 345 -145 467 -35 180 -26 352 39 830 17 120 36 266 43
324 18 148 17 921 -1 1194 -12 170 -12 226 -2 294 13 88 59 243 89 300 l18 33
104 -128 c110 -134 247 -283 261 -283 16 0 9 29 -30 127 -32 81 -184 413 -223
488 -10 19 -10 19 8 4 163 -140 306 -230 439 -274 116 -39 235 -91 337 -147
49 -27 96 -47 103 -44 10 3 12 0 8 -11 -4 -11 -2 -14 5 -9 7 4 12 3 12 -2 0
-6 -7 -13 -16 -16 -8 -3 -12 -11 -8 -17 4 -7 3 -9 -4 -5 -6 3 -13 2 -17 -4 -3
-5 1 -10 9 -10 10 0 13 -6 9 -15 -3 -10 -1 -15 7 -13 7 2 14 -3 15 -10 2 -7 1
-8 -1 -3 -3 6 -12 7 -20 4 -8 -3 -14 1 -14 11 0 24 -16 20 -45 -12 -42 -44
-69 -93 -57 -101 6 -3 85 -28 176 -56 91 -27 166 -52 166 -56 0 -3 -47 -28
-105 -57 -58 -29 -105 -56 -105 -60 1 -5 217 -183 322 -263 21 -16 18 -18 -80
-50 -56 -18 -102 -36 -102 -39 0 -3 54 -50 120 -104 66 -53 118 -101 115 -106
-3 -6 -26 -21 -51 -36 -24 -14 -44 -30 -44 -35 0 -6 26 -49 58 -97 32 -48 61
-92 65 -98 4 -7 -32 -37 -91 -75 -53 -35 -134 -99 -181 -141 -95 -88 -176
-141 -243 -159 -38 -10 -78 -9 -229 5 -101 10 -217 27 -258 37 -41 11 -76 17
-78 15 -7 -7 162 -104 327 -188 85 -43 172 -94 192 -114 53 -50 104 -160 134
-289 41 -175 71 -269 141 -440 98 -242 125 -342 137 -510 4 -50 9 -109 13
-133 l5 -43 51 3 51 3 13 60 c35 152 64 331 73 445 12 147 30 209 78 262 19
21 33 41 30 43 -2 3 -35 25 -72 49 l-68 43 61 43 c33 23 58 46 56 50 -3 4 -29
18 -60 30 -30 12 -55 26 -55 30 0 5 20 55 44 112 52 120 63 107 -103 128 -56
7 -104 16 -106 20 -2 3 16 69 39 146 24 76 42 140 41 142 -3 3 -28 -7 -128
-52 -64 -29 -64 -23 -3 42 23 24 45 50 49 58 4 8 59 52 122 99 153 115 280
236 296 282 17 54 4 135 -56 332 -68 224 -73 243 -139 561 -30 146 -65 309
-77 363 -11 54 -20 99 -18 100 108 66 342 230 366 256 47 50 87 140 113 251
38 165 48 193 101 285 131 229 250 379 402 507 161 136 180 150 237 177 55 25
56 25 410 32 391 8 537 23 628 64 l54 25 -44 -52 c-24 -29 -94 -109 -155 -180
-62 -70 -113 -130 -113 -133 0 -3 52 33 116 81 64 47 117 84 119 82 2 -2 -41
-59 -96 -127 -54 -68 -99 -125 -99 -127 0 -2 16 4 35 12 20 8 59 24 87 35 61
24 67 34 -76 -129 -54 -62 -97 -115 -95 -117 2 -2 41 12 86 30 46 18 83 31 83
29 0 -2 -27 -45 -60 -96 -32 -51 -58 -94 -56 -95 2 -2 34 10 71 27 37 17 70
28 72 26 4 -4 -90 -169 -156 -276 -15 -24 -15 -25 4 -10 11 8 74 62 140 119
87 76 134 125 173 182 28 43 52 83 52 88 0 5 -18 20 -40 32 -22 13 -40 27 -40
31 0 5 17 35 38 66 21 31 49 74 61 95 l24 39 -83 -42 c-45 -23 -84 -40 -85
-38 -2 2 16 26 39 53 113 130 154 180 151 183 -2 2 -30 -11 -64 -27 -34 -17
-61 -29 -61 -26 0 2 39 66 86 140 47 75 84 138 81 141 -3 3 -33 -6 -66 -19
-36 -14 -61 -20 -61 -14 0 22 127 134 190 169 36 19 126 68 200 108 187 101
267 158 400 285 200 190 209 199 216 192 3 -3 -12 -91 -35 -194 -23 -104 -41
-195 -41 -202 0 -8 28 3 75 28 41 23 75 38 75 35 0 -4 -29 -63 -65 -131 -36
-67 -63 -123 -60 -123 4 0 33 21 66 46 32 25 59 42 59 39 0 -4 -34 -72 -76
-152 -85 -160 -85 -158 19 -106 27 13 51 23 53 20 2 -2 -34 -49 -81 -105 -47
-56 -85 -103 -85 -105 0 -3 35 4 77 14 43 9 79 17 80 16 1 -1 -34 -49 -77
-107 l-79 -105 100 -3 c54 -1 99 -6 99 -10 1 -91 26 -330 46 -435 14 -77 24
-140 22 -141 -2 -2 -46 -13 -98 -26 -52 -13 -96 -24 -97 -25 -2 -1 13 -41 33
-90 19 -48 33 -93 30 -100 -2 -7 -31 -27 -63 -45 -32 -18 -100 -57 -151 -87
l-94 -55 54 -48 53 -48 -40 -7 c-22 -4 -92 -17 -155 -29 l-115 -22 67 -39 c37
-22 68 -43 68 -46 0 -3 -44 -21 -97 -39 -54 -18 -101 -36 -105 -39 -4 -4 0
-31 10 -60 l17 -54 -35 -29 c-19 -16 -67 -45 -107 -65 -93 -46 -133 -43 -258
22 l-90 46 -21 -26 c-40 -51 -118 -187 -135 -238 -32 -91 -22 -156 52 -346 53
-136 52 -184 -9 -304 l-42 -82 182 181 183 182 130 66 130 65 -128 3 -127 3
107 127 c70 81 159 170 250 249 136 117 142 124 153 173 31 133 24 123 88 130
115 13 106 5 132 116 13 55 27 104 30 110 4 7 27 16 51 21 24 6 60 14 80 19
l36 10 18 110 18 110 67 0 68 0 28 72 c15 40 44 118 66 172 37 97 38 103 38
228 0 258 50 605 117 809 37 113 37 116 37 274 -1 170 -13 262 -61 458 -34
134 -33 139 81 377 124 258 145 327 185 587 24 153 40 190 109 255 93 87 341
234 360 213 5 -6 38 -75 72 -155 34 -80 97 -217 140 -306 88 -179 102 -232
140 -514 12 -85 24 -173 28 -195 l7 -39 85 107 c75 94 86 104 92 84 3 -12 25
-105 48 -207 24 -105 60 -233 85 -295 63 -162 62 -146 4 -179 -28 -15 -49 -29
-47 -31 2 -2 49 -30 105 -62 80 -46 149 -100 323 -253 122 -107 233 -205 248
-218 l27 -23 -55 21 c-30 12 -91 37 -134 56 -44 19 -81 32 -83 30 -2 -2 64
-52 146 -112 83 -59 149 -109 148 -110 -1 -1 -79 8 -172 21 -93 13 -171 22
-172 21 -2 -2 79 -58 179 -124 101 -67 179 -122 173 -122 -5 1 -63 13 -127 29
-65 16 -118 25 -118 21 0 -5 65 -57 145 -116 79 -59 143 -109 142 -111 -2 -2
-180 37 -242 53 -24 6 4 -12 133 -87 l93 -54 -48 -7 c-26 -3 -95 -7 -153 -7
l-105 -1 95 -88 c52 -48 118 -108 145 -134 l50 -48 -120 40 c-66 22 -123 39
-127 38 -4 -2 27 -47 68 -100 41 -54 72 -98 70 -98 -3 0 -53 23 -112 50 -59
27 -108 50 -110 50 -3 0 16 -41 42 -91 25 -50 43 -93 41 -96 -3 -2 -42 14 -86
37 l-81 40 35 -70 c19 -38 35 -72 35 -75 0 -2 -29 6 -65 19 -35 13 -61 18 -58
12 4 -6 42 -52 85 -103 43 -51 78 -95 78 -98 0 -6 -56 18 -179 79 -61 30 -111
52 -111 48 0 -4 32 -45 70 -92 39 -47 70 -88 70 -91 0 -4 -42 9 -92 27 -51 19
-96 34 -101 34 -9 0 104 -165 138 -202 21 -22 33 -26 73 -26 26 1 53 6 61 12
12 9 13 8 6 -3 -6 -11 -4 -13 9 -8 10 4 22 7 27 7 6 0 7 5 3 11 -4 8 1 9 15 4
24 -7 110 24 174 63 l38 23 -7 -37 c-6 -33 -5 -36 11 -30 10 3 23 1 31 -5 10
-8 23 9 59 81 25 51 83 149 129 218 45 70 108 167 140 216 31 49 61 85 65 80
5 -5 68 -92 141 -194 74 -102 169 -233 212 -292 43 -59 78 -109 78 -112 0 -3
-57 37 -127 89 -70 51 -129 93 -130 91 -2 -2 138 -427 162 -491 4 -11 -31 18
-79 65 -47 46 -86 82 -86 80 0 -3 38 -120 85 -260 l85 -255 -55 57 c-30 31
-55 52 -55 46 0 -8 49 -187 76 -278 4 -16 -16 5 -49 51 -17 23 -18 22 -13 -83
2 -60 1 -108 -1 -108 -3 0 -31 21 -61 47 -38 32 -53 41 -49 27 3 -10 16 -68
28 -128 21 -105 23 -109 62 -137 22 -16 55 -32 75 -35 58 -11 82 4 123 81 45
83 63 98 104 89 69 -14 355 -170 451 -245 88 -69 284 -276 284 -300 0 -21 -32
-25 -107 -10 -24 5 -43 4 -43 0 0 -5 36 -80 80 -166 44 -86 78 -158 76 -160
-2 -2 -38 12 -80 31 -42 19 -76 33 -76 30 0 -2 36 -50 80 -106 43 -56 78 -103
77 -105 -2 -1 -33 9 -70 22 -37 14 -67 22 -67 20 0 -3 14 -33 31 -66 17 -34
28 -63 25 -66 -3 -3 -19 -1 -35 5 -17 6 -31 9 -31 6 0 -3 25 -66 55 -141 31
-75 54 -138 51 -140 -2 -2 -63 12 -136 32 -73 20 -133 35 -135 33 -2 -2 34
-46 80 -98 46 -52 84 -98 84 -102 1 -4 -23 -5 -51 -2 l-53 6 40 -38 c22 -20
84 -77 137 -126 l98 -89 -26 -45 c-15 -25 -23 -49 -18 -53 27 -24 328 -243
339 -247 10 -4 10 9 -1 68 -8 40 -17 88 -20 106 -4 18 -2 32 3 32 6 0 54 -18
107 -41 54 -22 99 -39 101 -37 1 2 -38 54 -87 117 l-90 114 71 -7 c39 -3 71
-4 71 -1 0 3 -16 37 -36 76 -19 39 -33 74 -30 77 3 3 31 7 61 10 35 3 55 9 55
17 0 7 -18 51 -40 99 -22 47 -40 91 -40 96 0 5 29 24 64 42 l64 33 -59 123
c-32 67 -53 122 -46 122 6 0 44 -9 85 -21 40 -11 75 -19 77 -17 2 2 -32 69
-76 148 -143 257 -143 259 -169 423 -12 81 -20 150 -18 153 5 4 120 -75 740
-506 l266 -185 7 -395 c18 -931 22 -959 23 -195 l2 740 -207 160 c-490 380
-898 713 -1052 860 -179 172 -298 353 -566 865 -269 514 -303 565 -787 1203
-42 56 -85 122 -94 147 -34 90 -143 259 -322 498 -188 250 -326 396 -408 430
-28 12 -30 18 -62 165 -35 162 -79 301 -120 382 -29 59 -73 125 -253 385 -178
255 -181 261 -318 570 l-118 265 31 25 c270 216 666 614 844 847 57 75 62 85
50 105 -7 13 -11 27 -10 32 2 5 -5 6 -14 2 -13 -5 -15 -2 -10 18 3 13 3 32 0
41 -6 15 -8 14 -25 -1 -10 -9 -16 -21 -12 -27 3 -6 1 -7 -5 -3 -7 4 -12 2 -12
-3 0 -6 4 -11 10 -11 5 0 6 -7 3 -17 -5 -12 -3 -14 7 -8 9 5 11 4 6 -3 -10
-16 -26 -15 -26 2 0 7 -6 19 -14 26 -16 13 -10 44 7 33 6 -4 8 0 4 10 -4 12 0
18 17 23 13 3 28 16 35 30 12 28 31 32 31 7 0 -9 3 -14 6 -10 10 10 -5 59 -16
52 -36 -22 -75 0 -45 25 10 8 17 7 29 -5 9 -9 16 -13 16 -9 0 3 6 1 14 -5 10
-8 13 -34 10 -99 -1 -49 1 -94 6 -101 15 -25 274 393 321 518 48 129 45 230
-11 328 -80 140 -602 650 -1171 1144 -250 218 -384 327 -601 490 -111 84 -279
212 -373 284 -93 72 -234 179 -312 238 -261 197 -267 198 -359 111 -85 -80
-130 -99 -234 -99 -81 1 -88 2 -155 42 -105 61 -358 186 -461 226 -98 39 -208
69 -319 88 -45 8 -216 13 -475 14 -453 2 -726 22 -943 69 -111 24 -137 26
-382 26 -229 0 -299 -4 -527 -30 -388 -45 -497 -62 -654 -104 -92 -25 -159 -5
-330 98 -50 31 -68 36 -119 36 -50 0 -72 -7 -131 -38z m2069 -152 c58 -18 65
-23 71 -51 11 -58 6 -144 -14 -199 -10 -30 -17 -57 -15 -59 7 -7 76 50 183
150 l103 97 129 -43 129 -43 140 53 139 52 159 -38 c149 -36 172 -38 413 -49
l254 -11 186 -100 c102 -55 187 -103 189 -105 2 -2 5 -27 5 -56 l1 -53 90 -13
c113 -17 226 -4 317 34 70 30 254 94 269 94 28 0 704 -526 989 -770 234 -200
649 -544 890 -737 96 -77 207 -174 246 -215 67 -71 177 -208 172 -214 -2 -1
-97 24 -212 57 -114 32 -215 59 -223 59 -13 0 -14 -33 -13 -237 3 -320 3 -317
-18 -343 -18 -22 -19 -22 -50 -6 -17 9 -36 26 -43 37 -6 11 -13 19 -15 16 -3
-2 49 -108 116 -235 66 -127 120 -233 120 -237 0 -6 -448 221 -465 236 -24 23
-35 0 -75 -163 -38 -153 -51 -190 -117 -320 -41 -82 -78 -148 -83 -148 -4 0
-30 30 -57 68 -27 37 -82 112 -122 167 -40 55 -76 101 -79 102 -4 2 -25 -43
-47 -98 -22 -55 -43 -103 -46 -105 -4 -2 -98 89 -209 203 -157 160 -201 200
-196 177 16 -67 152 -499 211 -672 35 -103 71 -215 80 -249 22 -88 45 -256 45
-335 0 -69 10 -89 35 -68 12 10 15 10 15 -1 0 -11 2 -11 8 -2 7 10 11 10 24 0
12 -10 14 -29 10 -111 -2 -57 -8 -93 -13 -85 -6 11 -9 10 -15 -4 -6 -17 -7
-17 -21 0 -13 17 -14 16 -8 -4 4 -13 2 -23 -4 -23 -5 0 -11 8 -14 18 -2 9 -7
-1 -10 -23 -28 -165 -40 -223 -63 -291 -27 -84 -74 -185 -129 -279 -19 -33
-44 -89 -56 -125 -75 -228 -138 -285 -270 -246 -181 53 -455 355 -617 681 -65
131 -76 170 -106 360 -39 254 -49 351 -50 495 -1 110 2 141 16 167 25 44 81
88 163 128 66 32 192 72 198 64 2 -2 23 -68 47 -146 24 -79 45 -141 47 -140 1
2 -1 57 -6 123 -4 65 -6 122 -5 125 2 3 41 -2 86 -12 46 -9 84 -16 85 -15 2 1
-31 40 -72 86 -41 46 -75 87 -75 90 0 4 50 14 110 25 61 10 107 21 103 25 -4
4 -59 25 -120 46 -62 21 -113 44 -113 51 0 6 22 76 49 154 28 79 49 144 48
146 -1 1 -66 -54 -144 -122 -154 -134 -197 -158 -238 -131 -52 34 -55 97 -21
508 47 557 50 625 51 993 0 329 -2 377 -18 435 -49 173 -122 235 -345 291
-110 28 -252 40 -252 21 0 -20 69 -205 203 -547 245 -626 249 -640 241 -1060
-6 -361 -14 -449 -59 -670 -33 -165 -63 -360 -85 -555 -48 -433 -73 -941 -51
-1054 6 -33 10 -60 8 -61 -1 -1 -81 11 -177 26 -96 16 -186 28 -200 28 -16 0
19 -23 102 -67 71 -37 122 -70 115 -73 -7 -4 -47 -15 -90 -25 -42 -10 -74 -21
-70 -25 5 -4 49 -20 98 -35 l90 -28 -47 -13 c-27 -7 -69 -19 -95 -26 l-48 -13
185 -62 c202 -68 240 -83 225 -88 -5 -2 -77 -21 -159 -42 l-149 -38 119 -47
c65 -26 121 -42 122 -37 2 6 8 10 13 10 6 0 8 -4 5 -8 -6 -10 73 -47 81 -38 4
3 1 6 -5 6 -7 0 -12 5 -12 11 0 6 7 9 15 5 8 -3 14 0 12 6 -1 7 6 13 15 16 21
4 60 -49 40 -56 -6 -2 -12 -9 -12 -15 1 -7 9 -2 19 11 26 30 37 28 17 -2 -15
-24 -15 -25 7 -32 12 -5 28 -7 35 -5 8 1 19 -2 26 -8 15 -12 41 3 31 18 -4 7
-19 10 -33 8 -15 -2 -22 -2 -15 0 13 5 6 33 -9 33 -5 0 -16 6 -23 14 -12 12
-10 16 15 26 25 10 32 10 45 -4 9 -9 13 -16 8 -16 -4 0 -2 -4 4 -8 7 -4 14
-28 17 -52 2 -31 9 -46 22 -51 27 -11 42 -10 25 0 -9 6 -15 32 -18 70 -3 58
-2 61 16 52 10 -6 21 -7 25 -4 3 3 6 -32 6 -79 0 -69 -3 -85 -15 -85 -18 0
-20 14 -3 19 7 3 -4 5 -24 6 l-37 1 2 -91 c2 -74 -1 -92 -13 -96 -13 -4 -13
-3 -2 11 9 11 11 21 4 32 -5 10 -8 38 -7 63 l3 47 -8 -40 -7 -40 -1 49 c-2 43
-4 48 -22 43 -11 -3 -20 -1 -20 5 0 6 13 8 30 6 17 -3 30 -1 30 4 0 4 -8 8
-19 8 -10 0 -33 3 -50 6 l-31 7 -2 -64 c-1 -63 -1 -63 -8 -19 l-7 45 -3 -50
-3 -50 -7 50 -8 50 2 -50 c1 -40 4 -49 17 -47 9 1 19 -6 21 -16 6 -20 68 -49
68 -31 0 6 4 8 10 4 5 -3 7 -12 3 -21 -4 -12 -17 -13 -67 -8 -86 10 -85 9 -92
17 -4 4 -19 7 -33 7 -21 0 -23 -2 -11 -10 9 -6 10 -10 3 -10 -7 0 -17 8 -22
18 -8 14 -10 14 -11 2 0 -9 -9 -16 -20 -16 -15 0 -18 5 -14 18 3 12 0 18 -10
18 -9 0 -19 1 -23 3 -4 1 -8 -10 -10 -25 -1 -19 13 -42 54 -87 30 -34 51 -61
46 -61 -4 0 -56 13 -115 29 -60 16 -108 26 -108 22 0 -3 25 -37 56 -74 30 -38
54 -71 52 -73 -3 -3 -350 83 -413 103 -12 3 12 -30 58 -81 44 -47 75 -86 70
-86 -5 0 -76 23 -158 50 -82 28 -153 49 -157 48 -4 -2 15 -41 42 -88 27 -47
50 -89 50 -93 0 -4 -71 29 -159 74 l-159 82 25 74 c14 41 24 75 22 77 -2 1
-47 27 -99 57 -52 29 -88 55 -80 56 8 1 46 5 84 8 37 4 64 10 60 14 -5 4 -51
25 -103 46 -100 42 -102 52 -8 54 20 1 37 5 37 10 0 5 -25 28 -56 51 -30 23
-54 43 -52 44 2 1 61 -1 133 -6 71 -4 134 -7 138 -5 5 1 -43 39 -105 85 -115
83 -282 205 -373 271 -27 19 -45 29 -40 21 5 -8 40 -62 78 -118 38 -57 66
-106 64 -108 -3 -3 -32 2 -65 10 -33 9 -63 16 -67 16 -3 0 14 -27 39 -59 25
-33 46 -62 46 -65 0 -3 -41 -7 -92 -8 l-92 -3 76 -60 c42 -33 77 -62 77 -65 1
-3 -37 -19 -84 -35 -47 -16 -85 -32 -85 -35 1 -4 59 -39 238 -141 30 -17 52
-32 50 -34 -1 -2 -34 3 -73 11 -38 7 -77 13 -85 14 -8 0 39 -36 105 -80 l120
-81 -110 7 -110 6 105 -104 c58 -57 152 -146 208 -200 l103 -96 -51 -11 c-87
-19 -151 -14 -191 13 -37 25 -88 95 -129 175 l-22 45 -32 -53 c-86 -145 -207
-321 -237 -345 -19 -15 -86 -50 -149 -78 -129 -57 -183 -90 -228 -143 -18 -19
-87 -144 -153 -277 -139 -277 -166 -312 -311 -405 -48 -32 -118 -80 -155 -106
-138 -99 -311 -166 -428 -167 -22 0 -65 7 -95 15 -31 9 -133 20 -235 25 -182
9 -231 16 -240 31 -3 4 8 41 24 81 26 65 27 74 12 79 -9 3 -90 21 -181 39
l-165 32 -55 57 c-30 31 -66 78 -80 104 l-25 48 27 24 c33 28 122 44 265 48
57 1 103 5 103 10 0 4 -6 7 -12 7 -7 0 -107 31 -223 68 l-210 68 -29 88 c-15
48 -25 90 -22 93 3 3 50 1 103 -6 145 -19 428 -26 505 -12 36 6 99 25 139 41
74 30 184 98 175 108 -3 2 -72 -1 -153 -9 -194 -18 -548 -18 -628 0 -116 25
-238 102 -247 156 -2 16 6 22 47 32 128 32 263 46 449 45 170 -1 194 1 235 19
65 29 131 97 131 137 0 5 -60 12 -132 16 -73 3 -189 11 -258 16 -69 5 -199 10
-289 10 -140 0 -162 2 -152 14 12 14 270 103 409 141 34 10 61 19 60 20 -2 2
-149 20 -328 41 -179 21 -327 39 -329 40 -7 5 32 149 50 185 10 20 47 74 82
120 163 215 235 340 257 445 30 146 -65 257 -324 379 -169 80 -551 221 -652
241 -108 22 -397 24 -517 5 -43 -7 -81 -11 -83 -9 -2 3 36 56 84 119 226 294
282 371 277 379 -7 11 -50 236 -66 341 -7 46 -13 165 -14 264 -3 266 -22 596
-41 715 -23 144 -23 411 0 543 29 164 75 277 162 400 23 32 49 94 79 193 84
269 140 375 467 881 104 161 200 316 213 345 30 64 47 144 43 195 -3 37 -3 37
-63 50 -87 18 -88 17 -114 -33 -14 -25 -58 -76 -99 -112 -178 -159 -186 -171
-251 -382 -56 -180 -63 -197 -114 -277 -31 -49 -48 -90 -60 -146 -13 -61 -29
-99 -71 -165 -82 -132 -211 -374 -260 -492 -74 -175 -90 -272 -91 -555 0 -231
1 -246 32 -395 43 -209 57 -333 50 -448 -6 -121 -34 -210 -134 -431 -41 -91
-76 -176 -79 -190 -3 -14 4 -51 14 -81 l19 -55 -54 -63 c-53 -60 -55 -66 -65
-140 -11 -93 -25 -157 -40 -186 -25 -48 -238 -283 -238 -263 0 36 161 601 217
762 55 159 65 217 64 355 0 133 2 145 65 290 28 65 28 66 26 270 -2 191 -19
350 -41 372 -3 4 -33 -69 -65 -163 -32 -93 -59 -168 -60 -167 -1 2 0 77 4 168
3 91 4 167 3 169 -1 2 -5 -5 -9 -15 -42 -135 -98 -244 -123 -244 -16 0 -32 55
-37 128 -3 43 -8 86 -9 97 -2 11 -4 24 -4 29 -1 5 -20 -15 -43 -44 -23 -29
-43 -49 -45 -43 -2 5 5 81 16 169 11 87 18 161 16 163 -2 2 -27 -15 -56 -38
-28 -22 -55 -41 -59 -41 -3 0 8 93 26 207 18 114 32 209 30 210 -2 2 -27 -38
-56 -89 -86 -149 -142 -230 -153 -219 -13 13 5 131 49 336 19 88 36 171 39
185 8 37 -23 -41 -106 -265 l-74 -200 -6 165 c-4 91 -12 200 -19 242 l-13 77
50 55 c82 92 133 192 148 288 7 46 16 91 20 101 7 17 242 137 335 171 86 31
211 140 393 341 140 155 200 204 322 267 183 94 353 220 520 386 67 66 145
135 175 154 53 33 285 128 313 128 7 0 28 -21 46 -46 l33 -45 -20 -52 c-11
-29 -28 -69 -37 -90 -9 -22 -12 -36 -8 -34 5 3 83 55 173 116 90 61 167 111
171 111 4 0 11 -25 14 -55 4 -30 11 -55 15 -55 5 0 58 30 119 66 61 37 114 65
117 62 2 -3 7 -28 11 -57 3 -28 11 -51 17 -51 6 0 96 36 199 80 104 44 199 80
213 80 42 0 42 -47 -2 -198 -7 -23 60 15 278 163 l53 35 145 1 c80 1 172 5
205 9 105 13 151 11 218 -10z m-3912 -3095 c10 7 13 -8 2 -18 -9 -10 -33 13
-33 32 1 14 2 14 11 -2 6 -9 14 -15 20 -12z m68 1 c10 -11 11 -16 3 -16 -7 0
-12 6 -13 13 0 10 -2 10 -6 0 -7 -18 -33 -16 -33 1 0 8 -8 17 -17 20 -10 2 -3
3 16 1 19 -2 41 -11 50 -19z m-96 -39 c-7 -11 -23 2 -23 19 0 12 2 12 14 2 8
-7 12 -16 9 -21z m9017 29 c0 -2 3 -11 6 -20 3 -9 1 -16 -5 -16 -6 0 -11 7
-11 15 0 8 -5 15 -11 15 -6 0 -8 -7 -5 -16 3 -8 2 -12 -4 -9 -18 11 -11 35 10
35 11 0 20 -2 20 -4z m-8932 -36 c15 0 15 2 2 10 -13 8 -12 10 3 10 19 0 22
-22 6 -52 -8 -14 -8 -23 0 -31 14 -14 14 -30 1 -22 -5 3 -10 -1 -10 -9 0 -9 5
-16 10 -16 13 0 13 -37 -1 -45 -5 -4 -19 1 -29 10 -13 12 -19 13 -22 4 -3 -9
-7 -7 -11 5 -4 9 -3 15 2 12 14 -9 38 35 43 77 5 42 -8 51 -15 10 -2 -17 -4
-11 -5 17 0 25 2 39 5 33 2 -7 12 -13 21 -13z m8910 -135 c-3 -3 -9 2 -12 12
-6 14 -5 15 5 6 7 -7 10 -15 7 -18z m92 -15 c0 -5 -5 -10 -11 -10 -5 0 -7 5
-4 10 3 6 8 10 11 10 2 0 4 -4 4 -10z m-63 -6 c-3 -3 -12 -4 -19 -1 -8 3 -5 6
6 6 11 1 17 -2 13 -5z m-1421 -1209 c1 -52 -3 -92 -7 -89 -15 9 -10 184 5 184
0 0 2 -43 2 -95z m-6789 -465 c322 -15 427 -31 528 -82 127 -64 174 -101 214
-165 48 -77 131 -221 131 -228 0 -3 -9 -1 -19 5 -32 16 -41 12 -41 -20 0 -16
-5 -51 -10 -78 l-11 -49 -38 39 c-21 21 -43 38 -48 38 -6 0 -13 -30 -16 -66
-4 -37 -9 -69 -11 -71 -3 -3 -14 3 -25 14 -50 47 -157 100 -226 111 -168 28
-171 28 -208 -9 -19 -19 -37 -41 -40 -49 -4 -11 -17 -3 -51 34 -49 53 -46 54
-117 -6 -26 -21 -50 -38 -54 -38 -5 0 -5 49 -1 109 6 106 5 110 -16 125 -12 9
-28 16 -34 16 -7 0 -54 -36 -105 -80 -51 -43 -95 -78 -97 -76 -1 2 6 36 17 77
12 40 19 75 16 77 -2 3 -56 -6 -120 -18 -64 -12 -117 -21 -119 -19 -2 2 -10
41 -19 87 -11 61 -12 84 -3 87 6 2 43 9 81 15 39 6 95 15 125 21 l55 11 -79
40 c-43 22 -76 41 -74 43 2 2 57 10 123 16 l119 12 -50 43 c-41 36 -45 44 -27
44 12 0 124 -5 250 -10z m5333 -650 c0 -5 -9 -6 -20 -3 -11 3 -20 9 -20 13 0
5 9 6 20 3 11 -3 20 -9 20 -13z m320 11 c0 -4 -11 -6 -25 -3 -14 2 -25 6 -25
8 0 2 11 4 25 4 14 0 25 -4 25 -9z m113 -8 c-13 -2 -33 -2 -45 0 -13 2 -3 4
22 4 25 0 35 -2 23 -4z m-93 -266 c23 -13 25 -28 9 -44 -9 -9 -15 -8 -27 3 -8
8 -11 18 -8 22 4 3 11 0 15 -7 6 -9 10 -10 16 -2 4 7 -5 16 -24 22 -27 9 -29
13 -18 30 10 16 9 21 -3 29 -12 7 -12 12 -2 22 7 7 13 45 14 98 2 68 3 61 5
-38 3 -109 6 -124 23 -135z m110 101 c0 -173 -4 -194 -32 -201 -16 -5 -19 -2
-15 14 3 10 1 19 -4 19 -5 0 -9 -12 -9 -27 0 -40 -14 -56 -39 -48 -18 5 -20 9
-10 21 6 8 18 14 26 14 11 0 13 10 7 48 -3 26 -6 49 -6 52 0 3 0 62 1 133 l1
127 40 0 40 0 0 -152z m-6288 -58 c27 -53 108 -112 181 -132 40 -10 51 -10 82
5 35 17 47 34 61 92 7 28 8 27 15 -20 16 -109 15 -112 -43 -130 -111 -33 -189
-15 -260 58 -82 85 -98 115 -105 195 -5 59 -3 76 13 99 l19 28 7 -75 c5 -43
17 -93 30 -120z m5995 174 c-3 -3 -12 -4 -19 -1 -8 3 -5 6 6 6 11 1 17 -2 13
-5z m53 -28 c0 -3 -4 -8 -10 -11 -5 -3 -10 -1 -10 4 0 6 5 11 10 11 6 0 10 -2
10 -4z m47 -153 c-2 -16 -4 -5 -4 22 0 28 2 40 4 28 2 -13 2 -35 0 -50z m-59
-50 c16 -30 15 -38 -3 -19 -8 8 -15 20 -15 26 0 6 -5 8 -11 5 -6 -4 -8 -13 -5
-21 3 -8 1 -14 -4 -14 -13 0 -13 37 0 45 6 3 11 25 11 48 l2 42 6 -45 c4 -25
12 -55 19 -67z m98 7 c9 0 12 -4 9 -10 -3 -5 -1 -19 5 -30 7 -13 7 -20 0 -20
-5 0 -10 5 -10 10 0 6 -6 9 -12 8 -8 -2 -14 10 -15 32 -1 19 0 29 3 23 3 -7
12 -13 20 -13z m-5040 -20 c86 -49 146 -138 123 -181 -16 -31 -70 -49 -148
-49 -176 0 -316 69 -372 184 l-20 41 48 -52 c67 -72 119 -101 204 -114 62 -9
219 -5 219 6 0 2 -27 29 -59 60 -116 111 -113 173 5 105z m5054 -95 c9 -10 9
-15 1 -15 -6 0 -11 4 -11 10 0 5 -7 6 -17 3 -11 -4 -14 -3 -9 5 10 16 21 15
36 -3z m130 6 c0 -5 -8 -18 -17 -29 -14 -16 -33 -21 -85 -24 -37 -2 -62 0 -55
4 6 4 36 8 65 8 47 0 52 2 53 23 0 21 1 21 9 2 8 -19 9 -19 9 3 1 20 21 33 21
13z m-150 -25 c0 -3 -4 -8 -10 -11 -5 -3 -10 -1 -10 4 0 6 5 11 10 11 6 0 10
-2 10 -4z m-6127 -128 c14 -24 51 -72 82 -107 54 -61 105 -146 105 -175 0 -15
-17 -20 -93 -32 -30 -4 -46 -11 -44 -18 3 -6 26 -63 52 -127 l48 -117 -32 -28
-32 -29 50 -92 c28 -50 51 -96 51 -101 0 -6 -23 -30 -51 -54 l-51 -44 25 -50
c13 -27 35 -72 47 -101 l22 -52 -37 -81 c-21 -44 -42 -80 -47 -80 -16 0 -68
84 -83 133 -19 64 -19 170 -1 317 29 233 30 296 7 415 -32 169 -62 465 -47
465 2 0 15 -19 29 -42z m824 -615 c134 -105 304 -263 335 -313 l16 -25 24 23
c13 12 27 22 30 22 10 0 3 -26 -15 -53 -19 -30 -22 -41 -7 -32 6 3 10 0 10 -9
0 -8 5 -16 11 -18 7 -2 5 -9 -5 -17 -14 -12 -16 -12 -10 3 3 9 1 16 -5 16 -6
0 -11 -5 -11 -11 0 -8 -5 -8 -15 1 -8 7 -14 20 -14 29 1 13 2 13 6 -1 2 -10 9
-18 14 -18 6 0 8 9 4 20 -4 13 1 27 14 42 27 28 17 38 -11 11 -20 -21 -22 -21
-47 -3 -14 9 -80 46 -146 81 -139 74 -201 127 -255 219 -40 66 -74 140 -65
140 2 0 66 -48 142 -107z m436 -207 c9 -7 17 -18 17 -25 0 -6 5 -11 10 -11 6
0 10 -7 10 -15 0 -33 -41 3 -44 39 -1 5 -8 11 -16 13 -12 4 -12 3 -2 -5 8 -5
14 -13 14 -18 0 -5 2 -13 4 -19 2 -5 8 -44 13 -85 l10 -75 -3 63 c-1 34 1 62
5 62 4 0 9 -27 11 -59 2 -48 0 -61 -14 -70 -15 -9 -18 -6 -23 22 -4 19 -7 60
-8 92 -2 53 -4 59 -24 60 -27 2 -39 12 -29 22 4 4 11 1 16 -7 6 -8 10 -12 11
-7 1 4 3 12 4 17 1 6 3 12 4 15 2 8 15 5 34 -9z m-60 -40 c13 -10 15 -15 5
-18 -7 -3 -18 1 -25 8 -26 25 -10 33 20 10z m-88 -224 c62 -51 198 -145 393
-270 80 -52 112 -78 112 -92 0 -46 -94 -53 -216 -16 -162 49 -480 147 -506
156 -16 5 -28 5 -28 0 0 -4 33 -43 73 -86 92 -99 167 -148 260 -169 112 -25
172 -86 116 -116 -34 -18 -100 -2 -210 52 -147 72 -251 143 -357 243 -127 121
-204 241 -238 368 -7 27 -11 48 -9 48 1 0 27 -11 56 -23 102 -45 231 -65 297
-48 49 14 82 52 82 95 l0 31 58 -61 c31 -34 84 -84 117 -112z m7621 -977 c-3
-9 0 -15 9 -15 8 0 15 7 15 15 0 18 16 20 26 4 7 -12 -13 -29 -36 -29 -23 0
-43 17 -36 29 11 17 29 13 22 -4z m139 5 c8 -13 -5 -13 -25 0 -13 8 -13 10 2
10 9 0 20 -4 23 -10z m-45 -10 c0 -5 -2 -10 -4 -10 -3 0 -8 5 -11 10 -3 6 -1
10 4 10 6 0 11 -4 11 -10z m-6070 -57 c0 -3 -7 -3 -14 0 -10 4 -13 1 -9 -8 4
-11 10 -12 23 -5 27 14 43 -11 36 -57 -3 -21 -7 -52 -8 -70 -1 -21 -8 -33 -20
-36 -11 -3 -18 0 -18 9 0 8 7 14 15 14 11 0 15 11 15 39 0 22 -4 42 -9 45 -5
4 -8 -11 -6 -34 2 -22 0 -40 -5 -40 -12 0 -19 52 -9 77 10 27 29 31 29 6 0 -9
3 -14 6 -10 10 10 -5 59 -16 52 -18 -11 -50 -14 -50 -4 0 5 -10 10 -22 10 -21
1 -21 2 -3 6 11 3 24 9 29 13 8 8 36 3 36 -7z m-50 -27 c0 -2 3 -11 6 -20 5
-12 0 -15 -19 -14 -22 2 -26 10 -18 36 2 4 31 2 31 -2z m90 -170 c0 -7 -9 -16
-21 -19 -15 -4 -18 -2 -10 7 6 7 8 16 4 19 -3 4 1 7 10 7 10 0 17 -6 17 -14z
m-83 -22 c-3 -3 -12 -4 -19 -1 -8 3 -5 6 6 6 11 1 17 -2 13 -5z"/>
<path d="M3785 11335 c-87 -57 -174 -109 -194 -115 -20 -6 -45 -15 -56 -20
-11 -5 -27 -11 -35 -13 -8 -3 -3 -6 11 -6 30 -1 37 -27 34 -114 -2 -57 -12
-59 144 32 l118 70 75 135 c42 75 73 136 69 136 -4 0 -79 -47 -166 -105z"/>
<path d="M3299 11078 c-39 -68 -89 -151 -110 -186 l-39 -63 17 -125 16 -125
-139 -140 c-152 -153 -152 -148 -4 -104 41 13 76 22 77 21 1 -1 -32 -136 -73
-300 -41 -164 -73 -300 -72 -302 5 -4 215 368 297 527 78 150 86 180 136 494
21 128 32 174 46 188 21 19 15 47 -9 47 -12 0 -13 -3 -4 -12 7 -7 12 -16 12
-22 0 -5 -6 -1 -14 9 -14 20 -11 49 5 39 5 -3 6 2 3 10 -3 9 -10 13 -15 10 -5
-3 -4 6 3 20 6 14 15 26 20 26 5 0 20 11 33 25 26 25 31 20 27 -27 -1 -10 3
-18 8 -18 6 0 10 18 10 40 0 25 -5 40 -12 40 -9 0 -8 4 2 10 12 8 11 10 -7 10
-31 0 -52 -10 -49 -23 1 -7 1 -9 -1 -4 -3 4 -9 5 -14 1 -5 -3 -9 -2 -8 3 4 20
-2 27 -12 13 -9 -13 -10 -13 -6 0 2 9 13 14 28 12 22 -3 22 -2 -5 12 -60 33
-69 26 -147 -106z"/>
<path d="M3459 11080 c-22 -18 -22 -21 -8 -32 9 -7 14 -19 12 -25 -3 -7 3 -13
12 -13 10 0 13 -5 9 -12 -5 -8 -2 -9 10 -5 10 4 20 7 22 7 3 0 2 5 -1 10 -3 6
-1 10 5 10 7 0 10 7 6 15 -3 8 0 15 7 15 7 0 -3 8 -22 17 -29 15 -31 18 -15
24 15 6 16 8 3 8 -9 1 -27 -8 -40 -19z m11 -10 c0 -5 -5 -10 -11 -10 -5 0 -7
5 -4 10 3 6 8 10 11 10 2 0 4 -4 4 -10z"/>
<path d="M2065 10020 c-3 -5 -7 -48 -9 -95 -2 -59 -8 -91 -19 -103 -15 -17
-29 -114 -14 -105 4 2 7 22 7 43 0 21 4 41 8 44 9 5 -1 -90 -12 -115 -5 -11
12 -45 51 -103 l58 -86 12 30 c24 57 25 133 4 307 -12 95 -21 177 -21 183 0
13 -57 13 -65 0z"/>
<path d="M1923 9842 c-7 -4 -19 -32 -26 -62 -14 -53 -16 -56 -66 -74 l-51 -18
32 -36 c58 -67 77 -127 107 -337 16 -108 31 -198 34 -202 15 -15 66 60 77 113
18 83 15 266 -4 367 -10 49 -15 91 -12 94 3 4 2 11 -3 17 -5 6 -10 31 -12 56
-3 52 -12 75 -34 84 -9 3 -13 2 -10 -4 3 -6 -1 -10 -10 -10 -9 0 -13 5 -10 10
7 12 4 12 -12 2z m63 -44 c-1 -7 -6 -20 -11 -28 -11 -18 -7 -62 6 -71 6 -3 3
-12 -6 -19 -13 -11 -15 -10 -9 4 3 9 2 16 -4 16 -6 0 -12 -5 -14 -11 -2 -7 -9
-5 -17 5 -12 14 -12 16 3 10 9 -3 16 -2 16 4 0 6 3 19 6 29 6 17 6 17 -8 -1
-10 -13 -17 -15 -22 -8 -10 16 2 34 16 26 8 -5 9 -1 5 10 -5 11 -3 15 5 10 7
-5 9 -2 5 9 -4 10 0 17 11 20 9 3 18 5 19 6 1 0 0 -5 -1 -11z"/>
<path d="M4658 9804 l-57 -46 -148 20 c-81 11 -149 19 -151 17 -1 -1 11 -41
28 -90 17 -48 30 -88 28 -90 -2 -2 -55 -15 -118 -31 l-115 -27 65 -22 c100
-34 173 -70 195 -95 11 -12 42 -33 68 -47 54 -27 215 -93 228 -93 5 0 -12 29
-36 64 -25 35 -45 66 -45 69 0 2 28 8 61 11 l62 7 -38 39 -37 38 108 6 c60 4
118 8 129 9 11 1 -42 26 -117 56 l-137 53 26 57 c44 98 62 141 60 141 -1 -1
-28 -21 -59 -46z"/>
<path d="M4172 9360 c-23 -58 -46 -117 -52 -133 l-10 -27 -60 30 c-70 36 -70
35 -70 10 0 -10 -5 -42 -11 -70 l-11 -52 -69 7 c-38 4 -69 4 -69 1 0 -3 18
-45 39 -93 22 -49 43 -109 46 -136 4 -26 11 -49 15 -52 4 -2 29 48 55 113 27
64 49 118 51 120 1 2 16 -4 34 -13 41 -21 51 -13 96 84 19 41 49 97 66 124
l31 48 -20 72 -19 71 -42 -104z"/>
<path d="M1573 9265 c-23 -7 -62 -24 -86 -38 -47 -28 -142 -125 -184 -189 -25
-37 -25 -40 -13 -98 7 -33 17 -63 21 -66 5 -3 41 14 80 37 40 24 74 38 77 33
4 -5 27 -38 50 -73 94 -136 164 -181 278 -181 l42 0 9 98 c12 149 9 370 -8
417 -19 55 -62 75 -154 74 -38 0 -89 -6 -112 -14z m211 -111 c3 -8 1 -25 -5
-36 -10 -18 -13 -19 -26 -5 -9 9 -13 23 -8 36 8 25 30 28 39 5z m-167 -152
c25 -49 92 -86 142 -77 37 6 39 5 34 -15 -7 -28 -58 -53 -92 -45 -38 10 -106
64 -135 110 -27 41 -27 65 2 98 16 18 17 17 25 -10 4 -15 15 -43 24 -61z"/>
<path d="M4302 9224 c-28 -20 -46 -54 -77 -151 -25 -79 -50 -121 -150 -247
-82 -106 -175 -349 -175 -461 0 -50 31 -97 109 -168 l53 -47 40 57 c23 32 61
88 85 125 52 78 55 79 158 43 109 -39 195 -32 440 37 104 29 117 30 247 26
l138 -4 -18 20 c-10 12 -57 66 -104 122 -152 178 -287 290 -400 332 -67 25
-203 22 -253 -5 -84 -45 -113 -91 -221 -348 -56 -131 -64 -145 -64 -110 0 57
24 162 55 241 47 119 141 309 184 373 80 118 85 181 14 181 -21 0 -49 -7 -61
-16z m308 -404 c25 -16 -7 -30 -70 -30 -30 0 -62 5 -70 10 -25 16 7 30 70 30
30 0 62 -5 70 -10z m-165 -112 c36 -57 68 -73 156 -77 73 -3 83 -1 121 24 32
21 47 25 74 20 19 -3 34 -9 34 -13 0 -13 -70 -63 -118 -85 -65 -29 -171 -30
-227 -1 -50 25 -92 96 -81 137 8 35 16 34 41 -5z"/>
<path d="M2117 8748 c-31 -68 -63 -142 -72 -165 -9 -23 -22 -44 -30 -46 -13
-5 -62 40 -84 78 -11 18 -12 17 -7 -10 3 -16 9 -80 12 -141 7 -110 6 -113 -23
-175 -16 -35 -60 -113 -97 -173 -36 -60 -65 -111 -63 -113 4 -4 131 135 190
208 40 49 88 142 142 274 31 75 103 371 92 381 -2 2 -29 -51 -60 -118z"/>
<path d="M3350 8424 c1 -17 78 -315 83 -320 3 -3 40 15 83 40 43 25 84 46 90
46 6 0 53 -24 105 -54 52 -30 95 -53 97 -51 2 1 -12 54 -29 117 l-33 115 -112
-5 -113 -5 -66 49 c-37 27 -76 55 -86 63 -11 7 -19 10 -19 5z"/>
<path d="M1399 8272 c23 -45 48 -108 56 -140 16 -66 35 -247 35 -339 0 -35 4
-63 9 -63 11 0 55 106 102 244 18 54 52 132 75 173 23 40 39 73 36 73 -4 0
-36 -18 -72 -39 l-65 -39 -108 107 -109 106 41 -83z"/>
<path d="M3259 7933 c49 -65 88 -119 86 -121 -1 -2 -28 13 -59 33 -90 57 -90
57 -36 -65 28 -62 50 -115 50 -118 0 -3 -11 6 -23 19 -13 13 -57 56 -97 94
-60 57 -69 64 -53 35 56 -95 188 -318 202 -340 17 -26 4 -17 -199 135 -229
171 -225 170 -127 35 31 -41 51 -76 47 -78 -5 -2 -53 8 -106 23 -53 14 -98 24
-100 22 -1 -1 62 -33 142 -71 79 -38 144 -72 144 -75 -1 -3 -23 -24 -50 -45
-27 -21 -47 -42 -45 -46 3 -5 45 -36 94 -71 76 -54 101 -79 168 -171 l78 -109
5 107 5 107 59 -82 c32 -45 61 -80 63 -77 2 2 -5 55 -16 117 -12 62 -21 120
-21 128 0 8 27 -30 59 -85 33 -55 67 -107 77 -115 16 -13 17 -11 10 25 -7 35
-147 420 -167 459 -19 34 0 15 97 -97 54 -63 100 -114 101 -112 2 1 -26 70
-61 152 -36 82 -63 150 -62 152 2 1 38 -11 81 -28 43 -17 79 -29 81 -27 2 2
-65 71 -149 153 -130 128 -166 157 -248 202 -52 28 -101 52 -107 52 -7 0 28
-53 77 -117z"/>
<path d="M4256 7924 c10 -56 43 -142 72 -189 14 -22 64 -79 111 -126 66 -66
104 -94 165 -125 75 -37 86 -39 184 -42 57 -2 120 -1 140 3 35 7 32 8 -49 25
-88 18 -259 92 -259 112 0 16 106 3 230 -28 113 -28 173 -28 233 1 45 21 104
71 95 80 -4 5 -74 12 -155 16 -82 5 -164 11 -183 15 -32 6 -28 8 50 24 87 18
165 51 210 89 l25 21 -120 -7 c-66 -5 -190 -8 -275 -8 -152 1 -156 1 -221 31
-60 29 -178 94 -237 132 -24 15 -24 15 -16 -24z"/>
<path d="M7988 7283 c-9 -3 -20 -13 -23 -24 -4 -11 -10 -17 -14 -14 -5 2 -8
-16 -8 -40 0 -24 4 -42 9 -39 4 3 6 9 3 14 -6 10 23 35 32 26 3 -3 1 -6 -5 -6
-7 0 -12 -5 -12 -11 0 -5 6 -7 13 -3 6 4 4 -2 -6 -13 -15 -17 -16 -25 -7 -49
11 -28 12 -29 26 -9 10 13 12 29 8 45 -10 37 -8 84 5 88 12 4 15 29 4 35 -5 2
-16 2 -25 0z m22 -13 c0 -5 -5 -10 -11 -10 -5 0 -7 5 -4 10 3 6 8 10 11 10 2
0 4 -4 4 -10z"/>
<path d="M7940 7269 c0 -5 5 -7 10 -4 6 3 10 8 10 11 0 2 -4 4 -10 4 -5 0 -10
-5 -10 -11z"/>
<path d="M7940 7124 c0 -8 5 -12 10 -9 6 3 10 10 10 16 0 5 -4 9 -10 9 -5 0
-10 -7 -10 -16z"/>
<path d="M6765 6030 c9 -16 21 -30 27 -30 6 0 4 8 -5 18 -10 10 -17 24 -17 30
0 7 -5 12 -10 12 -6 0 -4 -13 5 -30z"/>
<path d="M6850 5950 c0 -6 7 -10 15 -10 8 0 15 2 15 4 0 2 -7 6 -15 10 -8 3
-15 1 -15 -4z"/>
<path d="M6476 5921 c-7 -11 22 -43 34 -36 4 3 7 13 6 23 -3 19 -31 29 -40 13z"/>
<path d="M6570 5911 c0 -5 -9 -7 -20 -4 -11 3 -20 0 -20 -6 0 -5 8 -8 18 -5
16 5 16 5 0 -8 -15 -13 -15 -15 3 -26 11 -7 24 -10 30 -7 5 4 9 3 8 -2 -3 -19
2 -31 17 -37 22 -8 40 4 23 15 -10 6 -11 9 -1 9 6 0 12 5 12 11 0 5 -6 7 -12
3 -10 -5 -10 -4 -2 5 6 7 9 23 6 37 -3 19 -11 24 -33 24 -16 0 -29 -4 -29 -9z
m18 -18 c-4 -21 -19 -34 -31 -26 -4 3 0 13 10 23 23 24 25 24 21 3z"/>
<path d="M6668 5893 c7 -3 16 -2 19 1 4 3 -2 6 -13 5 -11 0 -14 -3 -6 -6z"/>
<path d="M505 8410 c-3 -5 -1 -10 4 -10 6 0 11 5 11 10 0 6 -2 10 -4 10 -3 0
-8 -4 -11 -10z"/>
<path d="M526 8395 c-3 -8 -1 -15 4 -15 6 0 10 7 10 15 0 8 -2 15 -4 15 -2 0
-6 -7 -10 -15z"/>
<path d="M3435 3350 c3 -5 8 -10 11 -10 2 0 4 5 4 10 0 6 -5 10 -11 10 -5 0
-7 -4 -4 -10z"/>
<path d="M9486 8587 c3 -10 9 -15 12 -12 3 3 0 11 -7 18 -10 9 -11 8 -5 -6z"/>
<path d="M9507 8516 c-5 -13 17 -86 26 -86 1 0 1 19 -1 43 -4 46 -16 67 -25
43z"/>
<path d="M9460 8479 c0 -5 5 -7 10 -4 6 3 10 8 10 11 0 2 -4 4 -10 4 -5 0 -10
-5 -10 -11z"/>
<path d="M9828 3443 c7 -3 16 -2 19 1 4 3 -2 6 -13 5 -11 0 -14 -3 -6 -6z"/>
<path d="M9820 3409 c7 -11 14 -19 16 -16 7 7 -7 37 -17 37 -6 0 -5 -9 1 -21z"/>
<path d="M9774 3323 c-6 -35 -7 -63 -2 -63 12 0 20 42 16 86 -3 36 -4 35 -14
-23z"/>
<path d="M6291 1271 c-12 -21 -26 -249 -41 -625 -5 -143 -11 -261 -13 -262 -2
-2 -16 105 -31 239 -34 287 -44 337 -45 222 -1 -44 -8 -237 -16 -430 -8 -192
-15 -365 -15 -382 l0 -33 143 0 144 0 90 92 c49 51 132 138 183 193 52 55 132
139 178 188 47 48 83 89 81 91 -2 3 -65 -28 -139 -68 -74 -40 -175 -93 -225
-120 l-90 -47 45 44 c25 24 127 122 228 217 184 173 260 255 249 267 -8 8
-110 -53 -310 -186 -182 -120 -198 -130 -181 -112 7 7 9 21 7 32 -7 24 -22 25
-18 2 1 -10 0 -12 -2 -5 -3 7 -12 12 -21 11 -32 -3 -41 1 -36 15 3 8 1 17 -5
21 -6 3 -11 -2 -12 -12 0 -16 -1 -16 -9 2 -12 27 -12 43 0 25 8 -12 10 -11 10
7 0 23 37 56 52 47 4 -3 8 2 8 10 0 8 8 20 18 25 11 7 12 10 3 11 -7 0 -11 6
-7 15 3 8 1 15 -4 15 -6 0 -10 -4 -10 -10 0 -5 -4 -10 -10 -10 -6 0 -9 5 -8
11 2 6 -3 13 -10 14 -7 2 -8 1 -3 -1 6 -4 6 -14 -1 -30 -13 -27 -28 -32 -28
-8 0 8 4 12 10 9 6 -4 7 1 3 12 -6 14 -9 13 -19 -12 -7 -17 -13 -23 -14 -15 0
23 26 57 50 63 11 3 18 1 14 -4 -3 -5 6 -9 20 -9 14 0 26 -5 26 -11 0 -27 37
6 139 128 61 72 111 134 111 136 0 3 -56 -24 -125 -59 -69 -35 -130 -64 -136
-64 -5 0 -24 30 -41 68 -96 210 -121 259 -140 279 -26 28 -34 29 -47 4z m169
-681 c8 -5 11 -12 7 -16 -4 -4 -15 0 -24 9 -18 18 -8 23 17 7z"/>
<path d="M4680 1023 c-34 -76 -69 -155 -77 -175 -8 -21 -19 -38 -23 -38 -5 0
-31 69 -59 153 l-50 152 0 -172 c-1 -95 -5 -173 -9 -173 -4 0 -36 29 -72 65
-35 35 -66 63 -68 61 -2 -2 9 -55 24 -117 l27 -113 -35 -30 c-19 -17 -87 -73
-151 -125 -64 -52 -115 -96 -113 -98 2 -2 59 21 127 52 68 30 127 54 132 52 4
-1 -26 -47 -67 -101 -42 -55 -74 -101 -72 -103 2 -2 47 4 100 13 54 9 99 14
102 11 3 -3 -18 -51 -46 -107 -28 -56 -49 -104 -47 -106 2 -2 46 0 98 6 52 5
100 10 107 10 8 0 -1 -24 -24 -66 -31 -55 -34 -65 -18 -61 44 14 169 47 174
47 3 0 -11 -14 -30 -30 l-35 -29 398 -1 c311 0 397 3 397 13 0 6 7 73 15 147
8 74 13 135 11 137 -1 1 -44 -63 -96 -142 -51 -80 -95 -144 -96 -142 -2 1 28
122 66 267 37 146 67 266 65 268 -1 2 -47 -78 -100 -178 -54 -99 -100 -179
-102 -177 -4 4 105 466 114 481 4 7 2 8 -4 1 -6 -5 -78 -139 -159 -297 -81
-158 -150 -286 -151 -284 -2 2 21 90 51 197 69 249 86 328 75 335 -5 3 -18 -5
-29 -18 -20 -23 -131 -195 -183 -283 -15 -25 -33 -45 -40 -42 -19 6 -20 134
-1 218 28 122 28 153 4 222 l-22 63 45 107 45 106 -62 80 c-33 44 -64 80 -67
81 -4 0 -35 -62 -69 -137z"/>
<path d="M6980 1022 c-31 -20 -134 -89 -230 -151 -96 -63 -193 -130 -214 -148
-21 -18 -42 -30 -46 -28 -4 2 -15 -2 -25 -9 -17 -12 -17 -17 -5 -45 14 -34 45
-40 45 -9 0 9 4 20 8 24 12 12 8 26 -5 18 -7 -4 -2 5 11 19 14 15 27 24 30 21
3 -3 -1 -9 -8 -14 -14 -8 -22 -70 -9 -70 4 0 9 15 11 33 3 17 4 6 3 -25 -1
-68 -20 -81 194 127 85 83 189 183 230 223 41 39 73 72 70 72 -3 0 -30 -17
-60 -38z m-500 -352 c-8 -5 -17 -7 -19 -4 -3 3 1 9 9 14 8 5 17 7 19 4 3 -3
-1 -9 -9 -14z"/>
<path d="M8085 381 c-209 -164 -382 -297 -384 -295 -2 2 36 45 85 96 121 126
348 376 352 388 11 31 -44 -14 -287 -235 -269 -244 -270 -245 -367 -285 -54
-22 -100 -43 -103 -45 -2 -3 229 -5 515 -5 l519 0 145 252 c80 138 146 255
148 259 2 5 -86 -82 -195 -191 -108 -110 -201 -200 -205 -200 -4 0 49 88 117
195 69 107 125 197 125 202 0 4 -17 -9 -37 -28 -21 -19 -92 -80 -158 -134 -66
-55 -164 -137 -217 -183 -54 -46 -98 -81 -98 -78 0 3 51 75 113 158 255 345
317 428 314 428 -1 0 -173 -135 -382 -299z"/>
<path d="M5925 504 c2 -16 9 -108 15 -204 6 -96 13 -195 16 -220 3 -25 3 -42
0 -39 -3 3 -26 73 -51 155 -25 82 -48 156 -52 164 -3 8 -16 -68 -29 -170 -13
-101 -22 -186 -20 -187 2 -2 73 -2 158 -1 l155 3 -91 257 c-89 250 -111 303
-101 242z"/>
<path d="M5492 157 c-28 -51 -61 -107 -73 -124 l-21 -33 91 0 c50 0 91 1 91 3
-1 17 -31 241 -33 243 -1 2 -26 -38 -55 -89z"/>
<path d="M5667 132 c-26 -64 -47 -120 -47 -124 0 -5 35 -8 79 -8 l78 0 -29
122 c-16 67 -30 123 -31 124 -1 2 -24 -50 -50 -114z"/>
</g>
</svg>
