<?xml version="1.0" encoding="UTF-8"?>
<svg version="1.1" xmlns="http://www.w3.org/2000/svg" width="32" height="32">
<path d="M0 0 C10.56 0 21.12 0 32 0 C32 10.56 32 21.12 32 32 C21.44 32 10.88 32 0 32 C0 21.44 0 10.88 0 0 Z " fill="#FEFEFE" transform="translate(0,0)"/>
<path d="M0 0 C3 1 3 1 5 4 C6.65 3.67 8.3 3.34 10 3 C7.56862745 9.68627451 7.56862745 9.68627451 5.1875 11 C2.37344091 11 -0.24723337 10.5630659 -3 10 C-2.01 8.68 -1.02 7.36 0 6 C-0.99 5.67 -1.98 5.34 -3 5 C-3 4.01 -3 3.02 -3 2 C-2.01 1.34 -1.02 0.68 0 0 Z " fill="#E0E1DF" transform="translate(11,11)"/>
<path d="M0 0 C0.99 0.33 1.98 0.66 3 1 C2.01 2.98 1.02 4.96 0 7 C-0.99 6.67 -1.98 6.34 -3 6 C-2.34 6 -1.68 6 -1 6 C-1 5.01 -1 4.02 -1 3 C-1.66 2.67 -2.32 2.34 -3 2 C-2.01 1.34 -1.02 0.68 0 0 Z " fill="#D6D6D5" transform="translate(18,14)"/>
</svg>
